<?xml version="1.0" encoding="UTF-8"?><svg id="Layer_1" xmlns="http://www.w3.org/2000/svg" viewBox="0 0 809.77 862.71"><defs><style>.cls-1{fill:#f1204a;}.cls-2{fill:#fff;}.cls-3{fill:#2dccd3;}</style></defs><path id="_Path_" class="cls-3" d="m353.74,368.27v-17.18c-7.95-1.32-15.89-1.75-22.48-1.75-89.56,0-164.54,71.87-164.54,161,0,58.51,28.48,108.53,71.75,138.13-30.15-29.92-48.85-71.79-48.85-119.2,0-88.97,74.75-160.8,164.12-161Zm51.61-201.55v346.7c0,45.42-32.64,74.64-72.34,74.64-13.17,0-25.67-3.08-36.54-8.76,13.79,17.61,35.57,27.74,59.44,27.74,39.69,0,72.34-29.22,72.34-74.68V185.65h62.91c-1.71-6.04-3.12-12.35-4.21-18.93h-81.61Zm144.64,102.26c20.02,20.65,44.99,33.23,70.16,38.95v-15.5c-23.65-1.68-48.38-9.12-70.16-23.45Z"/><path id="_Path_-2" class="cls-1" d="m549.99,268.97c-19.36-19.91-34.12-47.33-40.12-83.32h-18.7c10.67,38.92,32.64,66.07,58.82,83.32Zm70.16,38.95v65.64c-36.34,0-70.74-6.93-101.05-27.35,35.29,35.29,78.1,46.32,123.95,46.32v-81.18c-7.56-.51-15.27-1.64-22.91-3.43Zm-323.67,271.36c-9.74-12.31-15.54-28.24-15.54-46.94,0-52.47,41.02-80.21,95.71-74.44v-87.88c-7.95-1.32-15.89-1.75-22.52-1.75h-.39v70.66c-54.69-5.73-95.71,21.97-95.71,74.48,0,30.7,15.7,53.99,38.45,65.87Zm199.72-71.6c0,110.71-84.69,169.37-164.51,169.37-34.55,0-66.65-10.44-93.22-28.59,29.84,29.61,70.9,47.52,116.12,47.52,79.82,0,164.51-58.67,164.51-169.37v-180.4c-7.95-5.38-15.58-11.65-22.91-18.97v180.44Z"/><path id="_Path_-3" class="cls-2" d="m331.69,677.06c79.82,0,164.51-58.67,164.51-169.37v-180.44c7.32,7.32,14.96,13.6,22.91,18.97,30.31,20.41,64.7,27.35,101.05,27.35v-65.64c-25.16-5.73-50.13-18.31-70.16-38.95-26.18-17.26-48.15-44.41-58.82-83.32h-62.91v346.7c0,45.46-32.64,74.68-72.34,74.68-23.88,0-45.65-10.13-59.44-27.74-22.75-11.88-38.45-35.18-38.45-65.87,0-52.51,41.02-80.21,95.71-74.48v-70.66c-89.36.19-164.12,72.03-164.12,161,0,47.41,18.7,89.28,48.85,119.2,26.57,18.15,58.67,28.59,93.22,28.59Z"/></svg>